<svg width="3951" height="1485" xmlns="http://www.w3.org/2000/svg" xmlns:xlink="http://www.w3.org/1999/xlink" xml:space="preserve" overflow="hidden"><g transform="translate(-224 -495)"><g><path d="M230 814.669C230 749.682 282.682 697 347.669 697L818.331 697C883.318 697 936 749.682 936 814.669L936 1701.33C936 1766.32 883.318 1819 818.331 1819L347.669 1819C282.682 1819 230 1766.32 230 1701.33Z" fill="#FFF2CC" fill-rule="evenodd" fill-opacity="1"/><path d="M347.669 1819C282.682 1819 230 1766.32 230 1701.33L230 814.669C230 749.682 282.682 697 347.669 697M818.331 697C883.318 697 936 749.682 936 814.669L936 1701.33C936 1766.32 883.318 1819 818.331 1819" stroke="#4472C4" stroke-width="2.29167" stroke-linecap="butt" stroke-linejoin="miter" stroke-miterlimit="8" stroke-opacity="1" fill="none" fill-rule="evenodd"/><text fill="#2F5597" fill-opacity="1" font-family="Arial,Arial_MSFontService,sans-serif" font-style="normal" font-variant="normal" font-weight="700" font-stretch="normal" font-size="92" text-anchor="start" direction="ltr" writing-mode="lr-tb" unicode-bidi="normal" text-decoration="none" transform="matrix(1 0 0 1 410.136 1527)">Product </text><text fill="#2F5597" fill-opacity="1" font-family="Arial,Arial_MSFontService,sans-serif" font-style="normal" font-variant="normal" font-weight="700" font-stretch="normal" font-size="92" text-anchor="start" direction="ltr" writing-mode="lr-tb" unicode-bidi="normal" text-decoration="none" transform="matrix(1 0 0 1 394.965 1637)">Manager</text><text fill="#2F5597" fill-opacity="1" font-family="Arial,Arial_MSFontService,sans-serif" font-style="normal" font-variant="normal" font-weight="700" font-stretch="normal" font-size="92" text-anchor="start" direction="ltr" writing-mode="lr-tb" unicode-bidi="normal" text-decoration="none" transform="matrix(1 0 0 1 380.069 1747)">Daily Life</text><path d="M1154.5 747.006C1154.5 611.417 1264.42 501.5 1400.01 501.5L3924.99 501.5C4060.58 501.5 4170.5 611.417 4170.5 747.006L4170.5 1728.99C4170.5 1864.58 4060.58 1974.5 3924.99 1974.5L1400.01 1974.5C1264.42 1974.5 1154.5 1864.58 1154.5 1728.99Z" stroke="#172C51" stroke-width="4.58333" stroke-linecap="butt" stroke-linejoin="miter" stroke-miterlimit="8" stroke-opacity="1" fill="#DEEBF7" fill-rule="evenodd" fill-opacity="1"/><text fill="#2F5597" fill-opacity="1" font-family="Arial,Arial_MSFontService,sans-serif" font-style="normal" font-variant="normal" font-weight="700" font-stretch="normal" font-size="110" text-anchor="start" direction="ltr" writing-mode="lr-tb" unicode-bidi="normal" text-decoration="none" transform="matrix(1 0 0 1 1259.18 697)">Quarterly Cycle</text><path d="M1249.5 829.334C1249.5 814.514 1261.51 802.5 1276.33 802.5L1647.67 802.5C1662.49 802.5 1674.5 814.514 1674.5 829.334L1674.5 936.666C1674.5 951.486 1662.49 963.5 1647.67 963.5L1276.33 963.5C1261.51 963.5 1249.5 951.486 1249.5 936.666Z" stroke="#FFFFFF" stroke-width="6.875" stroke-linecap="butt" stroke-linejoin="miter" stroke-miterlimit="8" stroke-opacity="1" fill="#FF7E79" fill-rule="evenodd" fill-opacity="1"/><text fill="#000000" fill-opacity="1" font-family="Arial,Arial_MSFontService,sans-serif" font-style="normal" font-variant="normal" font-weight="400" font-stretch="normal" font-size="55" text-anchor="start" direction="ltr" writing-mode="lr-tb" unicode-bidi="normal" text-decoration="none" transform="matrix(1 0 0 1 1332.24 869)">Review for </text><text fill="#000000" fill-opacity="1" font-family="Arial,Arial_MSFontService,sans-serif" font-style="normal" font-variant="normal" font-weight="400" font-stretch="normal" font-size="55" text-anchor="start" direction="ltr" writing-mode="lr-tb" unicode-bidi="normal" text-decoration="none" transform="matrix(1 0 0 1 1379.51 935)">priority</text><path d="M1249.5 1253.33C1249.5 1238.51 1261.51 1226.5 1276.33 1226.5L1647.67 1226.5C1662.49 1226.5 1674.5 1238.51 1674.5 1253.33L1674.5 1360.67C1674.5 1375.49 1662.49 1387.5 1647.67 1387.5L1276.33 1387.5C1261.51 1387.5 1249.5 1375.49 1249.5 1360.67Z" stroke="#FFFFFF" stroke-width="6.875" stroke-linecap="butt" stroke-linejoin="miter" stroke-miterlimit="8" stroke-opacity="1" fill="#4472C4" fill-rule="evenodd" fill-opacity="1"/><text fill="#FFFFFF" fill-opacity="1" font-family="Arial,Arial_MSFontService,sans-serif" font-style="normal" font-variant="normal" font-weight="400" font-stretch="normal" font-size="55" text-anchor="start" direction="ltr" writing-mode="lr-tb" unicode-bidi="normal" text-decoration="none" transform="matrix(1 0 0 1 1367.47 1327)">1</text><text fill="#FFFFFF" fill-opacity="1" font-family="Arial,Arial_MSFontService,sans-serif" font-style="normal" font-variant="normal" font-weight="400" font-stretch="normal" font-size="55" text-anchor="start" direction="ltr" writing-mode="lr-tb" unicode-bidi="normal" text-decoration="none" transform="matrix(1 0 0 1 1397.84 1327)">-</text><text fill="#FFFFFF" fill-opacity="1" font-family="Arial,Arial_MSFontService,sans-serif" font-style="normal" font-variant="normal" font-weight="400" font-stretch="normal" font-size="55" text-anchor="start" direction="ltr" writing-mode="lr-tb" unicode-bidi="normal" text-decoration="none" transform="matrix(1 0 0 1 1416.17 1327)">pager</text><path d="M1789.5 1243.33C1789.5 1225.75 1803.75 1211.5 1821.33 1211.5L2182.67 1211.5C2200.25 1211.5 2214.5 1225.75 2214.5 1243.33L2214.5 1370.67C2214.5 1388.25 2200.25 1402.5 2182.67 1402.5L1821.33 1402.5C1803.75 1402.5 1789.5 1388.25 1789.5 1370.67Z" stroke="#FFFFFF" stroke-width="6.875" stroke-linecap="butt" stroke-linejoin="miter" stroke-miterlimit="8" stroke-opacity="1" fill="#4472C4" fill-rule="evenodd" fill-opacity="1"/><text fill="#FFFFFF" fill-opacity="1" font-family="Arial,Arial_MSFontService,sans-serif" font-style="normal" font-variant="normal" font-weight="400" font-stretch="normal" font-size="55" text-anchor="start" direction="ltr" writing-mode="lr-tb" unicode-bidi="normal" text-decoration="none" transform="matrix(1 0 0 1 1907.15 1294)">Feature</text><text fill="#FFFFFF" fill-opacity="1" font-family="Arial,Arial_MSFontService,sans-serif" font-style="normal" font-variant="normal" font-weight="400" font-stretch="normal" font-size="55" text-anchor="start" direction="ltr" writing-mode="lr-tb" unicode-bidi="normal" text-decoration="none" transform="matrix(1 0 0 1 1890.53 1360)">Narrative</text><path d="M2329.5 1253.33C2329.5 1238.51 2341.51 1226.5 2356.33 1226.5L2727.67 1226.5C2742.49 1226.5 2754.5 1238.51 2754.5 1253.33L2754.5 1360.67C2754.5 1375.49 2742.49 1387.5 2727.67 1387.5L2356.33 1387.5C2341.51 1387.5 2329.5 1375.49 2329.5 1360.67Z" stroke="#FFFFFF" stroke-width="6.875" stroke-linecap="butt" stroke-linejoin="miter" stroke-miterlimit="8" stroke-opacity="1" fill="#4472C4" fill-rule="evenodd" fill-opacity="1"/><text fill="#FFFFFF" fill-opacity="1" font-family="Arial,Arial_MSFontService,sans-serif" font-style="normal" font-variant="normal" font-weight="400" font-stretch="normal" font-size="55" text-anchor="start" direction="ltr" writing-mode="lr-tb" unicode-bidi="normal" text-decoration="none" transform="matrix(1 0 0 1 2483.78 1327)">PRD</text><path d="M2868.5 1307C2868.5 1280.21 2890.21 1258.5 2917 1258.5 2943.79 1258.5 2965.5 1280.21 2965.5 1307 2965.5 1333.79 2943.79 1355.5 2917 1355.5 2890.21 1355.5 2868.5 1333.79 2868.5 1307Z" stroke="#FFFFFF" stroke-width="4.58333" stroke-linecap="butt" stroke-linejoin="miter" stroke-miterlimit="8" stroke-opacity="1" fill="#FF7E79" fill-rule="evenodd" fill-opacity="1"/><path d="M3081.5 1253.33C3081.5 1238.51 3093.51 1226.5 3108.33 1226.5L3479.67 1226.5C3494.49 1226.5 3506.5 1238.51 3506.5 1253.33L3506.5 1360.67C3506.5 1375.49 3494.49 1387.5 3479.67 1387.5L3108.33 1387.5C3093.51 1387.5 3081.5 1375.49 3081.5 1360.67Z" stroke="#FFFFFF" stroke-width="6.875" stroke-linecap="butt" stroke-linejoin="miter" stroke-miterlimit="8" stroke-opacity="1" fill="#4472C4" fill-rule="evenodd" fill-opacity="1"/><text fill="#FFFFFF" fill-opacity="1" font-family="Arial,Arial_MSFontService,sans-serif" font-style="normal" font-variant="normal" font-weight="400" font-stretch="normal" font-size="55" text-anchor="start" direction="ltr" writing-mode="lr-tb" unicode-bidi="normal" text-decoration="none" transform="matrix(1 0 0 1 3240.25 1327)">Epic</text><path d="M3081.5 1069.33C3081.5 1054.51 3093.51 1042.5 3108.33 1042.5L3479.67 1042.5C3494.49 1042.5 3506.5 1054.51 3506.5 1069.33L3506.5 1176.67C3506.5 1191.49 3494.49 1203.5 3479.67 1203.5L3108.33 1203.5C3093.51 1203.5 3081.5 1191.49 3081.5 1176.67Z" stroke="#FFFFFF" stroke-width="6.875" stroke-linecap="butt" stroke-linejoin="miter" stroke-miterlimit="8" stroke-opacity="1" fill="#4472C4" fill-rule="evenodd" fill-opacity="1"/><text fill="#FFFFFF" fill-opacity="1" font-family="Arial,Arial_MSFontService,sans-serif" font-style="normal" font-variant="normal" font-weight="400" font-stretch="normal" font-size="55" text-anchor="start" direction="ltr" writing-mode="lr-tb" unicode-bidi="normal" text-decoration="none" transform="matrix(1 0 0 1 3240.25 1143)">Epic</text><path d="M3081.5 1437.5C3081.5 1422.59 3093.59 1410.5 3108.5 1410.5L3479.5 1410.5C3494.41 1410.5 3506.5 1422.59 3506.5 1437.5L3506.5 1545.5C3506.5 1560.41 3494.41 1572.5 3479.5 1572.5L3108.5 1572.5C3093.59 1572.5 3081.5 1560.41 3081.5 1545.5Z" stroke="#FFFFFF" stroke-width="6.875" stroke-linecap="butt" stroke-linejoin="miter" stroke-miterlimit="8" stroke-opacity="1" fill="#4472C4" fill-rule="evenodd" fill-opacity="1"/><text fill="#FFFFFF" fill-opacity="1" font-family="Arial,Arial_MSFontService,sans-serif" font-style="normal" font-variant="normal" font-weight="400" font-stretch="normal" font-size="55" text-anchor="start" direction="ltr" writing-mode="lr-tb" unicode-bidi="normal" text-decoration="none" transform="matrix(1 0 0 1 3240.25 1511)">Epic</text><path d="M3621.5 966.667C3621.5 958.29 3628.29 951.5 3636.67 951.5L4031.33 951.5C4039.71 951.5 4046.5 958.29 4046.5 966.667L4046.5 1027.33C4046.5 1035.71 4039.71 1042.5 4031.33 1042.5L3636.67 1042.5C3628.29 1042.5 3621.5 1035.71 3621.5 1027.33Z" stroke="#FFFFFF" stroke-width="6.875" stroke-linecap="butt" stroke-linejoin="miter" stroke-miterlimit="8" stroke-opacity="1" fill="#4472C4" fill-rule="evenodd" fill-opacity="1"/><text fill="#FFFFFF" fill-opacity="1" font-family="Arial,Arial_MSFontService,sans-serif" font-style="normal" font-variant="normal" font-weight="400" font-stretch="normal" font-size="55" text-anchor="start" direction="ltr" writing-mode="lr-tb" unicode-bidi="normal" text-decoration="none" transform="matrix(1 0 0 1 3769.33 1016)">Story</text><path d="M3621.5 1090.67C3621.5 1082.29 3628.29 1075.5 3636.67 1075.5L4031.33 1075.5C4039.71 1075.5 4046.5 1082.29 4046.5 1090.67L4046.5 1151.33C4046.5 1159.71 4039.71 1166.5 4031.33 1166.5L3636.67 1166.5C3628.29 1166.5 3621.5 1159.71 3621.5 1151.33Z" stroke="#FFFFFF" stroke-width="6.875" stroke-linecap="butt" stroke-linejoin="miter" stroke-miterlimit="8" stroke-opacity="1" fill="#4472C4" fill-rule="evenodd" fill-opacity="1"/><text fill="#FFFFFF" fill-opacity="1" font-family="Arial,Arial_MSFontService,sans-serif" font-style="normal" font-variant="normal" font-weight="400" font-stretch="normal" font-size="55" text-anchor="start" direction="ltr" writing-mode="lr-tb" unicode-bidi="normal" text-decoration="none" transform="matrix(1 0 0 1 3769.33 1141)">Story</text><path d="M3621.5 1214.67C3621.5 1206.29 3628.29 1199.5 3636.67 1199.5L4031.33 1199.5C4039.71 1199.5 4046.5 1206.29 4046.5 1214.67L4046.5 1275.33C4046.5 1283.71 4039.71 1290.5 4031.33 1290.5L3636.67 1290.5C3628.29 1290.5 3621.5 1283.71 3621.5 1275.33Z" stroke="#FFFFFF" stroke-width="6.875" stroke-linecap="butt" stroke-linejoin="miter" stroke-miterlimit="8" stroke-opacity="1" fill="#4472C4" fill-rule="evenodd" fill-opacity="1"/><text fill="#FFFFFF" fill-opacity="1" font-family="Arial,Arial_MSFontService,sans-serif" font-style="normal" font-variant="normal" font-weight="400" font-stretch="normal" font-size="55" text-anchor="start" direction="ltr" writing-mode="lr-tb" unicode-bidi="normal" text-decoration="none" transform="matrix(1 0 0 1 3769.33 1265)">Story</text><path d="M3621.5 1338.67C3621.5 1330.29 3628.29 1323.5 3636.67 1323.5L4031.33 1323.5C4039.71 1323.5 4046.5 1330.29 4046.5 1338.67L4046.5 1399.33C4046.5 1407.71 4039.71 1414.5 4031.33 1414.5L3636.67 1414.5C3628.29 1414.5 3621.5 1407.71 3621.5 1399.33Z" stroke="#FFFFFF" stroke-width="6.875" stroke-linecap="butt" stroke-linejoin="miter" stroke-miterlimit="8" stroke-opacity="1" fill="#4472C4" fill-rule="evenodd" fill-opacity="1"/><text fill="#FFFFFF" fill-opacity="1" font-family="Arial,Arial_MSFontService,sans-serif" font-style="normal" font-variant="normal" font-weight="400" font-stretch="normal" font-size="55" text-anchor="start" direction="ltr" writing-mode="lr-tb" unicode-bidi="normal" text-decoration="none" transform="matrix(1 0 0 1 3769.33 1389)">Story</text><path d="M3621.5 1586.83C3621.5 1578.37 3628.37 1571.5 3636.83 1571.5L4031.17 1571.5C4039.64 1571.5 4046.5 1578.37 4046.5 1586.83L4046.5 1648.17C4046.5 1656.63 4039.64 1663.5 4031.17 1663.5L3636.83 1663.5C3628.37 1663.5 3621.5 1656.63 3621.5 1648.17Z" stroke="#FFFFFF" stroke-width="6.875" stroke-linecap="butt" stroke-linejoin="miter" stroke-miterlimit="8" stroke-opacity="1" fill="#4472C4" fill-rule="evenodd" fill-opacity="1"/><text fill="#FFFFFF" fill-opacity="1" font-family="Arial,Arial_MSFontService,sans-serif" font-style="normal" font-variant="normal" font-weight="400" font-stretch="normal" font-size="55" text-anchor="start" direction="ltr" writing-mode="lr-tb" unicode-bidi="normal" text-decoration="none" transform="matrix(1 0 0 1 3769.33 1637)">Story</text><path d="M2705.5 829.334C2705.5 814.514 2717.51 802.5 2732.33 802.5L3103.67 802.5C3118.49 802.5 3130.5 814.514 3130.5 829.334L3130.5 936.666C3130.5 951.486 3118.49 963.5 3103.67 963.5L2732.33 963.5C2717.51 963.5 2705.5 951.486 2705.5 936.666Z" stroke="#FFFFFF" stroke-width="6.875" stroke-linecap="butt" stroke-linejoin="miter" stroke-miterlimit="8" stroke-opacity="1" fill="#FF7E79" fill-rule="evenodd" fill-opacity="1"/><text fill="#000000" fill-opacity="1" font-family="Arial,Arial_MSFontService,sans-serif" font-style="normal" font-variant="normal" font-weight="400" font-stretch="normal" font-size="55" text-anchor="start" direction="ltr" writing-mode="lr-tb" unicode-bidi="normal" text-decoration="none" transform="matrix(1 0 0 1 2801.86 869)">Review &amp; </text><text fill="#000000" fill-opacity="1" font-family="Arial,Arial_MSFontService,sans-serif" font-style="normal" font-variant="normal" font-weight="400" font-stretch="normal" font-size="55" text-anchor="start" direction="ltr" writing-mode="lr-tb" unicode-bidi="normal" text-decoration="none" transform="matrix(1 0 0 1 2809.6 935)">Approval</text><path d="M1466.01 963 1466.01 995.083 1457.99 995.083 1457.99 963ZM1466.01 1019.15 1466.01 1051.23 1457.99 1051.23 1457.99 1019.15ZM1466.01 1075.29 1466.01 1107.37 1457.99 1107.37 1457.99 1075.29ZM1466.01 1131.44 1466.01 1163.52 1457.99 1163.52 1457.99 1131.44ZM1466.01 1187.58 1466.01 1202.99 1457.99 1202.99 1457.99 1187.58ZM1475.75 1198.41 1462 1225.91 1448.25 1198.41Z" fill="#FF7E79" fill-rule="nonzero" fill-opacity="1"/><path d="M4.01039-0.0134858 4.11828 32.0697-3.90251 32.0966-4.01039 0.0134858ZM4.19919 56.132 4.30708 88.2152-3.71371 88.2422-3.82159 56.159ZM4.388 112.278 4.49588 144.361-3.52491 144.388-3.63279 112.305ZM4.5768 168.423 4.68468 200.506-3.3361 200.533-3.44399 168.45ZM4.7656 224.569 4.87348 256.652-3.1473 256.679-3.25519 224.596ZM14.6499 267.589 0.992454 295.135-12.8499 267.682Z" fill="#FF7E79" fill-rule="nonzero" fill-opacity="1" transform="matrix(-1 0 0 1 2917.99 963)"/><path d="M1.25821e-05-4.01042 92.1142-4.01013 92.1142 4.01071-1.25821e-05 4.01042ZM87.5309-13.7497 115.031 0.000360892 87.5308 13.7503Z" fill="#4472C4" fill-rule="nonzero" fill-opacity="1" transform="matrix(1 0 0 -1 1674 1307)"/><path d="M2214 1302.99 2306.11 1302.99 2306.11 1311.01 2214 1311.01ZM2301.53 1293.25 2329.03 1307 2301.53 1320.75Z" fill="#4472C4" fill-rule="nonzero" fill-opacity="1"/><path d="M1.26916e-05-4.01042 91.1217-4.01013 91.1217 4.0107-1.26916e-05 4.01042ZM86.5384-13.7497 114.038 0.000360892 86.5383 13.7503Z" fill="#4472C4" fill-rule="nonzero" fill-opacity="1" transform="matrix(1 0 0 -1 2754 1307)"/><path d="M2965 1302.99 3058.11 1302.99 3058.11 1311.01 2965 1311.01ZM3053.52 1293.25 3081.02 1307 3053.52 1320.75Z" fill="#4472C4" fill-rule="nonzero" fill-opacity="1"/><path d="M0.799433-0.820878 99.4138 95.2172 97.8149 96.859-0.799433 0.820878ZM104.924 82.9898 115.032 112.027 85.7377 102.691Z" fill="#4472C4" fill-rule="nonzero" fill-opacity="1" transform="matrix(1 0 0 -1 3506 1108.03)"/><path d="M0.020013-1.14566 92.1391 0.46353 92.0991 2.75485-0.020013 1.14566ZM87.7766-12.2188 115.032 2.00945 87.2963 15.277Z" fill="#4472C4" fill-rule="nonzero" fill-opacity="1" transform="matrix(1 0 0 -1 3506 1123.01)"/><path d="M0.544042-1.00844 95.4072 50.1691 94.3191 52.1859-0.544042 1.00844ZM97.3578 36.9 115.032 62.0583 84.3008 61.1026Z" fill="#4472C4" fill-rule="nonzero" fill-opacity="1" transform="matrix(1 0 0 -1 3506 1307.06)"/><path d="M3506.54 1305.99 3601.41 1357.17 3600.32 1359.18 3505.46 1308.01ZM3603.36 1343.9 3621.03 1369.06 3590.3 1368.1Z" fill="#4472C4" fill-rule="nonzero" fill-opacity="1"/><text fill="#2F5597" fill-opacity="1" font-family="Arial,Arial_MSFontService,sans-serif" font-style="normal" font-variant="normal" font-weight="400" font-stretch="normal" font-size="55" text-anchor="start" direction="ltr" writing-mode="lr-tb" unicode-bidi="normal" text-decoration="none" transform="matrix(1 0 0 1 1327.4 1509)">Justification</text><text fill="#2F5597" fill-opacity="1" font-family="Arial,Arial_MSFontService,sans-serif" font-style="normal" font-variant="normal" font-weight="400" font-stretch="normal" font-size="55" text-anchor="start" direction="ltr" writing-mode="lr-tb" unicode-bidi="normal" text-decoration="none" transform="matrix(1 0 0 1 1327.4 1575)">-</text><text fill="#2F5597" fill-opacity="1" font-family="Arial,Arial_MSFontService,sans-serif" font-style="normal" font-variant="normal" font-weight="400" font-stretch="normal" font-size="55" text-anchor="start" direction="ltr" writing-mode="lr-tb" unicode-bidi="normal" text-decoration="none" transform="matrix(1 0 0 1 1361.2 1575)">Why us?</text><text fill="#2F5597" fill-opacity="1" font-family="Arial,Arial_MSFontService,sans-serif" font-style="normal" font-variant="normal" font-weight="400" font-stretch="normal" font-size="55" text-anchor="start" direction="ltr" writing-mode="lr-tb" unicode-bidi="normal" text-decoration="none" transform="matrix(1 0 0 1 1327.4 1641)">-</text><text fill="#2F5597" fill-opacity="1" font-family="Arial,Arial_MSFontService,sans-serif" font-style="normal" font-variant="normal" font-weight="400" font-stretch="normal" font-size="55" text-anchor="start" direction="ltr" writing-mode="lr-tb" unicode-bidi="normal" text-decoration="none" transform="matrix(1 0 0 1 1361.2 1641)">Why now?</text><text fill="#2F5597" fill-opacity="1" font-family="Arial,Arial_MSFontService,sans-serif" font-style="normal" font-variant="normal" font-weight="400" font-stretch="normal" font-size="55" text-anchor="start" direction="ltr" writing-mode="lr-tb" unicode-bidi="normal" text-decoration="none" transform="matrix(1 0 0 1 1798.76 1510)">Workflow focused</text><text fill="#2F5597" fill-opacity="1" font-family="Arial,Arial_MSFontService,sans-serif" font-style="normal" font-variant="normal" font-weight="400" font-stretch="normal" font-size="55" text-anchor="start" direction="ltr" writing-mode="lr-tb" unicode-bidi="normal" text-decoration="none" transform="matrix(1 0 0 1 1798.76 1576)">-</text><text fill="#2F5597" fill-opacity="1" font-family="Arial,Arial_MSFontService,sans-serif" font-style="normal" font-variant="normal" font-weight="400" font-stretch="normal" font-size="55" text-anchor="start" direction="ltr" writing-mode="lr-tb" unicode-bidi="normal" text-decoration="none" transform="matrix(1 0 0 1 1832.57 1576)">Current</text><text fill="#2F5597" fill-opacity="1" font-family="Arial,Arial_MSFontService,sans-serif" font-style="normal" font-variant="normal" font-weight="400" font-stretch="normal" font-size="55" text-anchor="start" direction="ltr" writing-mode="lr-tb" unicode-bidi="normal" text-decoration="none" transform="matrix(1 0 0 1 1798.76 1642)">-</text><text fill="#2F5597" fill-opacity="1" font-family="Arial,Arial_MSFontService,sans-serif" font-style="normal" font-variant="normal" font-weight="400" font-stretch="normal" font-size="55" text-anchor="start" direction="ltr" writing-mode="lr-tb" unicode-bidi="normal" text-decoration="none" transform="matrix(1 0 0 1 1832.57 1642)">Proposed</text><text fill="#2F5597" fill-opacity="1" font-family="Arial,Arial_MSFontService,sans-serif" font-style="normal" font-variant="normal" font-weight="400" font-stretch="normal" font-size="55" text-anchor="start" direction="ltr" writing-mode="lr-tb" unicode-bidi="normal" text-decoration="none" transform="matrix(1 0 0 1 2339.68 1509)">Requirements, KPIs</text><text fill="#2F5597" fill-opacity="1" font-family="Arial,Arial_MSFontService,sans-serif" font-style="normal" font-variant="normal" font-weight="400" font-stretch="normal" font-size="55" text-anchor="start" direction="ltr" writing-mode="lr-tb" unicode-bidi="normal" text-decoration="none" transform="matrix(1 0 0 1 2339.68 1660)">User stories, Acceptance criteria</text><path d="M2863.52 1486.06 3058.49 1487.34 3058.45 1494.22 2863.48 1492.94ZM3053.98 1477 3081.38 1490.93 3053.79 1504.5Z" fill="#4472C4" fill-rule="nonzero" fill-opacity="1"/><text fill="#2F5597" fill-opacity="1" font-family="Arial,Arial_MSFontService,sans-serif" font-style="normal" font-variant="normal" font-weight="400" font-stretch="normal" font-size="73" text-anchor="start" direction="ltr" writing-mode="lr-tb" unicode-bidi="normal" text-decoration="none" transform="matrix(1 0 0 1 1628.09 1851)">PRD is a release</text><text fill="#2F5597" fill-opacity="1" font-family="Arial,Arial_MSFontService,sans-serif" font-style="normal" font-variant="normal" font-weight="400" font-stretch="normal" font-size="73" text-anchor="start" direction="ltr" writing-mode="lr-tb" unicode-bidi="normal" text-decoration="none" transform="matrix(1 0 0 1 2177.52 1851)">-</text><text fill="#2F5597" fill-opacity="1" font-family="Arial,Arial_MSFontService,sans-serif" font-style="normal" font-variant="normal" font-weight="400" font-stretch="normal" font-size="73" text-anchor="start" direction="ltr" writing-mode="lr-tb" unicode-bidi="normal" text-decoration="none" transform="matrix(1 0 0 1 2202.15 1851)">sized scope of work, not a strategy document</text><path d="M3833.5 1414.5 3833.5 1571.47" stroke="#4472C4" stroke-width="9.16667" stroke-linecap="butt" stroke-linejoin="miter" stroke-miterlimit="8" stroke-dasharray="9.16667 9.16667" stroke-opacity="1" fill="none" fill-rule="evenodd"/><text fill="#2F5597" fill-opacity="1" font-family="Arial,Arial_MSFontService,sans-serif" font-style="normal" font-variant="normal" font-weight="400" font-stretch="normal" font-size="83" text-anchor="start" direction="ltr" writing-mode="lr-tb" unicode-bidi="normal" text-decoration="none" transform="matrix(1 0 0 1 408.152 848)">Research</text><text fill="#2F5597" fill-opacity="1" font-family="Arial,Arial_MSFontService,sans-serif" font-style="normal" font-variant="normal" font-weight="400" font-stretch="normal" font-size="83" text-anchor="start" direction="ltr" writing-mode="lr-tb" unicode-bidi="normal" text-decoration="none" transform="matrix(1 0 0 1 385.235 947)">Customers</text><text fill="#2F5597" fill-opacity="1" font-family="Arial,Arial_MSFontService,sans-serif" font-style="normal" font-variant="normal" font-weight="400" font-stretch="normal" font-size="83" text-anchor="start" direction="ltr" writing-mode="lr-tb" unicode-bidi="normal" text-decoration="none" transform="matrix(1 0 0 1 364.61 1046)">Competition</text><text fill="#2F5597" fill-opacity="1" font-family="Arial,Arial_MSFontService,sans-serif" font-style="normal" font-variant="normal" font-weight="400" font-stretch="normal" font-size="83" text-anchor="start" direction="ltr" writing-mode="lr-tb" unicode-bidi="normal" text-decoration="none" transform="matrix(1 0 0 1 385.235 1145)">Roadmaps</text><text fill="#2F5597" fill-opacity="1" font-family="Arial,Arial_MSFontService,sans-serif" font-style="normal" font-variant="normal" font-weight="400" font-stretch="normal" font-size="83" text-anchor="start" direction="ltr" writing-mode="lr-tb" unicode-bidi="normal" text-decoration="none" transform="matrix(1 0 0 1 473.052 1244)">Vision</text><text fill="#2F5597" fill-opacity="1" font-family="Arial,Arial_MSFontService,sans-serif" font-style="normal" font-variant="normal" font-weight="400" font-stretch="normal" font-size="83" text-anchor="start" direction="ltr" writing-mode="lr-tb" unicode-bidi="normal" text-decoration="none" transform="matrix(1 0 0 1 431.068 1343)">Strategy</text><path d="M948.5 1243.25 1113 1243.25 1113 1177.5 1244.5 1309 1113 1440.5 1113 1374.75 948.5 1374.75Z" stroke="#FFFFFF" stroke-width="4.58333" stroke-linecap="butt" stroke-linejoin="miter" stroke-miterlimit="8" stroke-opacity="1" fill="#4472C4" fill-rule="evenodd" fill-opacity="1"/></g></g></svg>