<svg width="3941" height="1485" xmlns="http://www.w3.org/2000/svg" xmlns:xlink="http://www.w3.org/1999/xlink" xml:space="preserve" overflow="hidden"><g transform="translate(-220 -426)"><g><path d="M225 733.669C225 668.682 277.683 616 342.669 616L813.331 616C878.318 616 931 668.682 931 733.669L931 1743.33C931 1808.32 878.318 1861 813.331 1861L342.669 1861C277.683 1861 225 1808.32 225 1743.33Z" fill="#FFF2CC" fill-rule="evenodd" fill-opacity="1"/><path d="M342.669 1861C277.683 1861 225 1808.32 225 1743.33L225 733.669C225 668.682 277.683 616 342.669 616M813.331 616C878.318 616 931 668.682 931 733.669L931 1743.33C931 1808.32 878.318 1861 813.331 1861" stroke="#4472C4" stroke-width="2.29167" stroke-linecap="butt" stroke-linejoin="miter" stroke-miterlimit="8" stroke-opacity="1" fill="none" fill-rule="evenodd"/><text fill="#2F5597" fill-opacity="1" font-family="Calibri,Calibri_MSFontService,sans-serif" font-style="normal" font-variant="normal" font-weight="700" font-stretch="normal" font-size="92" text-anchor="start" direction="ltr" writing-mode="lr-tb" unicode-bidi="normal" text-decoration="none" transform="matrix(1 0 0 1 429.095 1566)">Product </text><text fill="#2F5597" fill-opacity="1" font-family="Calibri,Calibri_MSFontService,sans-serif" font-style="normal" font-variant="normal" font-weight="700" font-stretch="normal" font-size="92" text-anchor="start" direction="ltr" writing-mode="lr-tb" unicode-bidi="normal" text-decoration="none" transform="matrix(1 0 0 1 407.256 1676)">Manager</text><text fill="#2F5597" fill-opacity="1" font-family="Calibri,Calibri_MSFontService,sans-serif" font-style="normal" font-variant="normal" font-weight="700" font-stretch="normal" font-size="92" text-anchor="start" direction="ltr" writing-mode="lr-tb" unicode-bidi="normal" text-decoration="none" transform="matrix(1 0 0 1 404.414 1786)">Daily Life</text><path d="M1140.5 677.837C1140.5 542.341 1250.34 432.5 1385.84 432.5L3911.16 432.5C4046.66 432.5 4156.5 542.341 4156.5 677.837L4156.5 1659.16C4156.5 1794.66 4046.66 1904.5 3911.16 1904.5L1385.84 1904.5C1250.34 1904.5 1140.5 1794.66 1140.5 1659.16Z" stroke="#172C51" stroke-width="4.58333" stroke-linecap="butt" stroke-linejoin="miter" stroke-miterlimit="8" stroke-opacity="1" fill="#DEEBF7" fill-rule="evenodd" fill-opacity="1"/><text fill="#2F5597" fill-opacity="1" font-family="Calibri,Calibri_MSFontService,sans-serif" font-style="normal" font-variant="normal" font-weight="700" font-stretch="normal" font-size="110" text-anchor="start" direction="ltr" writing-mode="lr-tb" unicode-bidi="normal" text-decoration="none" transform="matrix(1 0 0 1 1245.23 624)">Quarterly Cycle</text><path d="M1235.5 760.334C1235.5 745.514 1247.51 733.5 1262.33 733.5L1633.67 733.5C1648.49 733.5 1660.5 745.514 1660.5 760.334L1660.5 867.666C1660.5 882.486 1648.49 894.5 1633.67 894.5L1262.33 894.5C1247.51 894.5 1235.5 882.486 1235.5 867.666Z" stroke="#FFFFFF" stroke-width="6.875" stroke-linecap="butt" stroke-linejoin="miter" stroke-miterlimit="8" stroke-opacity="1" fill="#FF7E79" fill-rule="evenodd" fill-opacity="1"/><text fill="#000000" fill-opacity="1" font-family="Calibri,Calibri_MSFontService,sans-serif" font-style="normal" font-variant="normal" font-weight="400" font-stretch="normal" font-size="55" text-anchor="start" direction="ltr" writing-mode="lr-tb" unicode-bidi="normal" text-decoration="none" transform="matrix(1 0 0 1 1329.65 798)">Review for </text><text fill="#000000" fill-opacity="1" font-family="Calibri,Calibri_MSFontService,sans-serif" font-style="normal" font-variant="normal" font-weight="400" font-stretch="normal" font-size="55" text-anchor="start" direction="ltr" writing-mode="lr-tb" unicode-bidi="normal" text-decoration="none" transform="matrix(1 0 0 1 1365.83 864)">priority</text><path d="M1235.5 1184.33C1235.5 1169.51 1247.51 1157.5 1262.33 1157.5L1633.67 1157.5C1648.49 1157.5 1660.5 1169.51 1660.5 1184.33L1660.5 1291.67C1660.5 1306.49 1648.49 1318.5 1633.67 1318.5L1262.33 1318.5C1247.51 1318.5 1235.5 1306.49 1235.5 1291.67Z" stroke="#FFFFFF" stroke-width="6.875" stroke-linecap="butt" stroke-linejoin="miter" stroke-miterlimit="8" stroke-opacity="1" fill="#4472C4" fill-rule="evenodd" fill-opacity="1"/><text fill="#FFFFFF" fill-opacity="1" font-family="Calibri,Calibri_MSFontService,sans-serif" font-style="normal" font-variant="normal" font-weight="400" font-stretch="normal" font-size="55" text-anchor="start" direction="ltr" writing-mode="lr-tb" unicode-bidi="normal" text-decoration="none" transform="matrix(1 0 0 1 1362.06 1255)">1</text><text fill="#FFFFFF" fill-opacity="1" font-family="Calibri,Calibri_MSFontService,sans-serif" font-style="normal" font-variant="normal" font-weight="400" font-stretch="normal" font-size="55" text-anchor="start" direction="ltr" writing-mode="lr-tb" unicode-bidi="normal" text-decoration="none" transform="matrix(1 0 0 1 1390.14 1255)">-</text><text fill="#FFFFFF" fill-opacity="1" font-family="Calibri,Calibri_MSFontService,sans-serif" font-style="normal" font-variant="normal" font-weight="400" font-stretch="normal" font-size="55" text-anchor="start" direction="ltr" writing-mode="lr-tb" unicode-bidi="normal" text-decoration="none" transform="matrix(1 0 0 1 1406.75 1255)">pager</text><path d="M1775.5 1174.33C1775.5 1156.75 1789.75 1142.5 1807.33 1142.5L2168.67 1142.5C2186.25 1142.5 2200.5 1156.75 2200.5 1174.33L2200.5 1301.67C2200.5 1319.25 2186.25 1333.5 2168.67 1333.5L1807.33 1333.5C1789.75 1333.5 1775.5 1319.25 1775.5 1301.67Z" stroke="#FFFFFF" stroke-width="6.875" stroke-linecap="butt" stroke-linejoin="miter" stroke-miterlimit="8" stroke-opacity="1" fill="#4472C4" fill-rule="evenodd" fill-opacity="1"/><text fill="#FFFFFF" fill-opacity="1" font-family="Calibri,Calibri_MSFontService,sans-serif" font-style="normal" font-variant="normal" font-weight="400" font-stretch="normal" font-size="55" text-anchor="start" direction="ltr" writing-mode="lr-tb" unicode-bidi="normal" text-decoration="none" transform="matrix(1 0 0 1 1902.54 1222)">Feature</text><text fill="#FFFFFF" fill-opacity="1" font-family="Calibri,Calibri_MSFontService,sans-serif" font-style="normal" font-variant="normal" font-weight="400" font-stretch="normal" font-size="55" text-anchor="start" direction="ltr" writing-mode="lr-tb" unicode-bidi="normal" text-decoration="none" transform="matrix(1 0 0 1 1884.25 1288)">Narrative</text><path d="M2315.5 1184.33C2315.5 1169.51 2327.51 1157.5 2342.33 1157.5L2713.67 1157.5C2728.49 1157.5 2740.5 1169.51 2740.5 1184.33L2740.5 1291.67C2740.5 1306.49 2728.49 1318.5 2713.67 1318.5L2342.33 1318.5C2327.51 1318.5 2315.5 1306.49 2315.5 1291.67Z" stroke="#FFFFFF" stroke-width="6.875" stroke-linecap="butt" stroke-linejoin="miter" stroke-miterlimit="8" stroke-opacity="1" fill="#4472C4" fill-rule="evenodd" fill-opacity="1"/><text fill="#FFFFFF" fill-opacity="1" font-family="Calibri,Calibri_MSFontService,sans-serif" font-style="normal" font-variant="normal" font-weight="400" font-stretch="normal" font-size="55" text-anchor="start" direction="ltr" writing-mode="lr-tb" unicode-bidi="normal" text-decoration="none" transform="matrix(1 0 0 1 2481.58 1255)">PRD</text><path d="M2854.5 1238C2854.5 1211.21 2876.21 1189.5 2903 1189.5 2929.79 1189.5 2951.5 1211.21 2951.5 1238 2951.5 1264.79 2929.79 1286.5 2903 1286.5 2876.21 1286.5 2854.5 1264.79 2854.5 1238Z" stroke="#FFFFFF" stroke-width="4.58333" stroke-linecap="butt" stroke-linejoin="miter" stroke-miterlimit="8" stroke-opacity="1" fill="#FF7E79" fill-rule="evenodd" fill-opacity="1"/><path d="M3067.5 1184.33C3067.5 1169.51 3079.51 1157.5 3094.33 1157.5L3465.67 1157.5C3480.49 1157.5 3492.5 1169.51 3492.5 1184.33L3492.5 1291.67C3492.5 1306.49 3480.49 1318.5 3465.67 1318.5L3094.33 1318.5C3079.51 1318.5 3067.5 1306.49 3067.5 1291.67Z" stroke="#FFFFFF" stroke-width="6.875" stroke-linecap="butt" stroke-linejoin="miter" stroke-miterlimit="8" stroke-opacity="1" fill="#4472C4" fill-rule="evenodd" fill-opacity="1"/><text fill="#FFFFFF" fill-opacity="1" font-family="Calibri,Calibri_MSFontService,sans-serif" font-style="normal" font-variant="normal" font-weight="400" font-stretch="normal" font-size="55" text-anchor="start" direction="ltr" writing-mode="lr-tb" unicode-bidi="normal" text-decoration="none" transform="matrix(1 0 0 1 3233.75 1255)">Epic</text><path d="M3067.5 1000.33C3067.5 985.514 3079.51 973.5 3094.33 973.5L3465.67 973.5C3480.49 973.5 3492.5 985.514 3492.5 1000.33L3492.5 1107.67C3492.5 1122.49 3480.49 1134.5 3465.67 1134.5L3094.33 1134.5C3079.51 1134.5 3067.5 1122.49 3067.5 1107.67Z" stroke="#FFFFFF" stroke-width="6.875" stroke-linecap="butt" stroke-linejoin="miter" stroke-miterlimit="8" stroke-opacity="1" fill="#4472C4" fill-rule="evenodd" fill-opacity="1"/><text fill="#FFFFFF" fill-opacity="1" font-family="Calibri,Calibri_MSFontService,sans-serif" font-style="normal" font-variant="normal" font-weight="400" font-stretch="normal" font-size="55" text-anchor="start" direction="ltr" writing-mode="lr-tb" unicode-bidi="normal" text-decoration="none" transform="matrix(1 0 0 1 3233.75 1071)">Epic</text><path d="M3067.5 1368.33C3067.5 1353.51 3079.51 1341.5 3094.33 1341.5L3465.67 1341.5C3480.49 1341.5 3492.5 1353.51 3492.5 1368.33L3492.5 1475.67C3492.5 1490.49 3480.49 1502.5 3465.67 1502.5L3094.33 1502.5C3079.51 1502.5 3067.5 1490.49 3067.5 1475.67Z" stroke="#FFFFFF" stroke-width="6.875" stroke-linecap="butt" stroke-linejoin="miter" stroke-miterlimit="8" stroke-opacity="1" fill="#4472C4" fill-rule="evenodd" fill-opacity="1"/><text fill="#FFFFFF" fill-opacity="1" font-family="Calibri,Calibri_MSFontService,sans-serif" font-style="normal" font-variant="normal" font-weight="400" font-stretch="normal" font-size="55" text-anchor="start" direction="ltr" writing-mode="lr-tb" unicode-bidi="normal" text-decoration="none" transform="matrix(1 0 0 1 3233.75 1440)">Epic</text><path d="M3607.5 897.667C3607.5 889.29 3614.29 882.5 3622.67 882.5L4017.33 882.5C4025.71 882.5 4032.5 889.29 4032.5 897.667L4032.5 958.333C4032.5 966.71 4025.71 973.5 4017.33 973.5L3622.67 973.5C3614.29 973.5 3607.5 966.71 3607.5 958.333Z" stroke="#FFFFFF" stroke-width="6.875" stroke-linecap="butt" stroke-linejoin="miter" stroke-miterlimit="8" stroke-opacity="1" fill="#4472C4" fill-rule="evenodd" fill-opacity="1"/><text fill="#FFFFFF" fill-opacity="1" font-family="Calibri,Calibri_MSFontService,sans-serif" font-style="normal" font-variant="normal" font-weight="400" font-stretch="normal" font-size="55" text-anchor="start" direction="ltr" writing-mode="lr-tb" unicode-bidi="normal" text-decoration="none" transform="matrix(1 0 0 1 3761.53 945)">Story</text><path d="M3607.5 1021.67C3607.5 1013.29 3614.29 1006.5 3622.67 1006.5L4017.33 1006.5C4025.71 1006.5 4032.5 1013.29 4032.5 1021.67L4032.5 1082.33C4032.5 1090.71 4025.71 1097.5 4017.33 1097.5L3622.67 1097.5C3614.29 1097.5 3607.5 1090.71 3607.5 1082.33Z" stroke="#FFFFFF" stroke-width="6.875" stroke-linecap="butt" stroke-linejoin="miter" stroke-miterlimit="8" stroke-opacity="1" fill="#4472C4" fill-rule="evenodd" fill-opacity="1"/><text fill="#FFFFFF" fill-opacity="1" font-family="Calibri,Calibri_MSFontService,sans-serif" font-style="normal" font-variant="normal" font-weight="400" font-stretch="normal" font-size="55" text-anchor="start" direction="ltr" writing-mode="lr-tb" unicode-bidi="normal" text-decoration="none" transform="matrix(1 0 0 1 3761.53 1069)">Story</text><path d="M3607.5 1145.67C3607.5 1137.29 3614.29 1130.5 3622.67 1130.5L4017.33 1130.5C4025.71 1130.5 4032.5 1137.29 4032.5 1145.67L4032.5 1206.33C4032.5 1214.71 4025.71 1221.5 4017.33 1221.5L3622.67 1221.5C3614.29 1221.5 3607.5 1214.71 3607.5 1206.33Z" stroke="#FFFFFF" stroke-width="6.875" stroke-linecap="butt" stroke-linejoin="miter" stroke-miterlimit="8" stroke-opacity="1" fill="#4472C4" fill-rule="evenodd" fill-opacity="1"/><text fill="#FFFFFF" fill-opacity="1" font-family="Calibri,Calibri_MSFontService,sans-serif" font-style="normal" font-variant="normal" font-weight="400" font-stretch="normal" font-size="55" text-anchor="start" direction="ltr" writing-mode="lr-tb" unicode-bidi="normal" text-decoration="none" transform="matrix(1 0 0 1 3761.53 1193)">Story</text><path d="M3607.5 1269.67C3607.5 1261.29 3614.29 1254.5 3622.67 1254.5L4017.33 1254.5C4025.71 1254.5 4032.5 1261.29 4032.5 1269.67L4032.5 1330.33C4032.5 1338.71 4025.71 1345.5 4017.33 1345.5L3622.67 1345.5C3614.29 1345.5 3607.5 1338.71 3607.5 1330.33Z" stroke="#FFFFFF" stroke-width="6.875" stroke-linecap="butt" stroke-linejoin="miter" stroke-miterlimit="8" stroke-opacity="1" fill="#4472C4" fill-rule="evenodd" fill-opacity="1"/><text fill="#FFFFFF" fill-opacity="1" font-family="Calibri,Calibri_MSFontService,sans-serif" font-style="normal" font-variant="normal" font-weight="400" font-stretch="normal" font-size="55" text-anchor="start" direction="ltr" writing-mode="lr-tb" unicode-bidi="normal" text-decoration="none" transform="matrix(1 0 0 1 3761.53 1318)">Story</text><path d="M3607.5 1517.67C3607.5 1509.29 3614.29 1502.5 3622.67 1502.5L4017.33 1502.5C4025.71 1502.5 4032.5 1509.29 4032.5 1517.67L4032.5 1578.33C4032.5 1586.71 4025.71 1593.5 4017.33 1593.5L3622.67 1593.5C3614.29 1593.5 3607.5 1586.71 3607.5 1578.33Z" stroke="#FFFFFF" stroke-width="6.875" stroke-linecap="butt" stroke-linejoin="miter" stroke-miterlimit="8" stroke-opacity="1" fill="#4472C4" fill-rule="evenodd" fill-opacity="1"/><text fill="#FFFFFF" fill-opacity="1" font-family="Calibri,Calibri_MSFontService,sans-serif" font-style="normal" font-variant="normal" font-weight="400" font-stretch="normal" font-size="55" text-anchor="start" direction="ltr" writing-mode="lr-tb" unicode-bidi="normal" text-decoration="none" transform="matrix(1 0 0 1 3761.53 1566)">Story</text><path d="M2691.5 760.334C2691.5 745.514 2703.51 733.5 2718.33 733.5L3089.67 733.5C3104.49 733.5 3116.5 745.514 3116.5 760.334L3116.5 867.666C3116.5 882.485 3104.49 894.499 3089.67 894.499L2718.33 894.499C2703.51 894.499 2691.5 882.485 2691.5 867.666Z" stroke="#FFFFFF" stroke-width="6.875" stroke-linecap="butt" stroke-linejoin="miter" stroke-miterlimit="8" stroke-opacity="1" fill="#FF7E79" fill-rule="evenodd" fill-opacity="1"/><text fill="#000000" fill-opacity="1" font-family="Calibri,Calibri_MSFontService,sans-serif" font-style="normal" font-variant="normal" font-weight="400" font-stretch="normal" font-size="55" text-anchor="start" direction="ltr" writing-mode="lr-tb" unicode-bidi="normal" text-decoration="none" transform="matrix(1 0 0 1 2798.7 798)">Review &amp; </text><text fill="#000000" fill-opacity="1" font-family="Calibri,Calibri_MSFontService,sans-serif" font-style="normal" font-variant="normal" font-weight="400" font-stretch="normal" font-size="55" text-anchor="start" direction="ltr" writing-mode="lr-tb" unicode-bidi="normal" text-decoration="none" transform="matrix(1 0 0 1 2804.06 864)">Approval</text><path d="M1452.01 894 1452.01 926.083 1443.99 926.083 1443.99 894ZM1452.01 950.146 1452.01 982.229 1443.99 982.229 1443.99 950.146ZM1452.01 1006.29 1452.01 1038.38 1443.99 1038.38 1443.99 1006.29ZM1452.01 1062.44 1452.01 1094.52 1443.99 1094.52 1443.99 1062.44ZM1452.01 1118.58 1452.01 1133.99 1443.99 1133.99 1443.99 1118.58ZM1461.75 1129.41 1448 1156.91 1434.25 1129.41Z" fill="#FF7E79" fill-rule="nonzero" fill-opacity="1"/><path d="M4.01039-0.0134858 4.11828 32.0697-3.90251 32.0966-4.01039 0.0134858ZM4.19919 56.132 4.30708 88.2152-3.71371 88.2422-3.82159 56.159ZM4.388 112.278 4.49588 144.361-3.52491 144.388-3.63279 112.305ZM4.5768 168.423 4.68468 200.506-3.3361 200.533-3.44399 168.45ZM4.7656 224.569 4.87348 256.652-3.1473 256.679-3.25519 224.596ZM14.6499 267.589 0.992454 295.135-12.8499 267.682Z" fill="#FF7E79" fill-rule="nonzero" fill-opacity="1" transform="matrix(-1 0 0 1 2903.99 894)"/><path d="M0.0130528-4.0104 281.358-3.09469 281.332 4.9261-0.0130528 4.0104ZM276.806-12.8491 304.262 0.990289 276.717 14.6507Z" fill="#4472C4" fill-rule="nonzero" fill-opacity="1" transform="matrix(1 0 0 -1 931 1238.99)"/><path d="M1.25821e-05-4.01042 92.1142-4.01013 92.1142 4.01071-1.25821e-05 4.01042ZM87.5309-13.7497 115.031 0.000360892 87.5308 13.7503Z" fill="#4472C4" fill-rule="nonzero" fill-opacity="1" transform="matrix(1 0 0 -1 1660 1237)"/><path d="M2200 1232.99 2292.11 1232.99 2292.11 1241.01 2200 1241.01ZM2287.53 1223.25 2315.03 1237 2287.53 1250.75Z" fill="#4472C4" fill-rule="nonzero" fill-opacity="1"/><path d="M1.26916e-05-4.01042 91.1217-4.01013 91.1217 4.0107-1.26916e-05 4.01042ZM86.5384-13.7497 114.038 0.000360892 86.5383 13.7503Z" fill="#4472C4" fill-rule="nonzero" fill-opacity="1" transform="matrix(1 0 0 -1 2740 1237)"/><path d="M2951 1232.99 3044.11 1232.99 3044.11 1241.01 2951 1241.01ZM3039.52 1223.25 3067.02 1237 3039.52 1250.75Z" fill="#4472C4" fill-rule="nonzero" fill-opacity="1"/><path d="M0.799433-0.820878 99.4138 95.2172 97.8149 96.859-0.799433 0.820878ZM104.924 82.9898 115.032 112.027 85.7377 102.691Z" fill="#4472C4" fill-rule="nonzero" fill-opacity="1" transform="matrix(1 0 0 -1 3492 1039.03)"/><path d="M0.020013-1.14566 92.1391 0.46353 92.0991 2.75485-0.020013 1.14566ZM87.7766-12.2188 115.032 2.00945 87.2963 15.277Z" fill="#4472C4" fill-rule="nonzero" fill-opacity="1" transform="matrix(1 0 0 -1 3492 1053.01)"/><path d="M0.544042-1.00844 95.4072 50.1691 94.3191 52.1859-0.544042 1.00844ZM97.3578 36.9 115.032 62.0583 84.3008 61.1026Z" fill="#4472C4" fill-rule="nonzero" fill-opacity="1" transform="matrix(1 0 0 -1 3492 1237.06)"/><path d="M3492.54 1236.99 3587.41 1288.17 3586.32 1290.18 3491.46 1239.01ZM3589.36 1274.9 3607.03 1300.06 3576.3 1299.1Z" fill="#4472C4" fill-rule="nonzero" fill-opacity="1"/><text fill="#2F5597" fill-opacity="1" font-family="Calibri,Calibri_MSFontService,sans-serif" font-style="normal" font-variant="normal" font-weight="400" font-stretch="normal" font-size="55" text-anchor="start" direction="ltr" writing-mode="lr-tb" unicode-bidi="normal" text-decoration="none" transform="matrix(1 0 0 1 1313.45 1453)">Justification</text><text fill="#2F5597" fill-opacity="1" font-family="Calibri,Calibri_MSFontService,sans-serif" font-style="normal" font-variant="normal" font-weight="400" font-stretch="normal" font-size="55" text-anchor="start" direction="ltr" writing-mode="lr-tb" unicode-bidi="normal" text-decoration="none" transform="matrix(1 0 0 1 1313.45 1519)">-</text><text fill="#2F5597" fill-opacity="1" font-family="Calibri,Calibri_MSFontService,sans-serif" font-style="normal" font-variant="normal" font-weight="400" font-stretch="normal" font-size="55" text-anchor="start" direction="ltr" writing-mode="lr-tb" unicode-bidi="normal" text-decoration="none" transform="matrix(1 0 0 1 1342.67 1519)">Why us?</text><text fill="#2F5597" fill-opacity="1" font-family="Calibri,Calibri_MSFontService,sans-serif" font-style="normal" font-variant="normal" font-weight="400" font-stretch="normal" font-size="55" text-anchor="start" direction="ltr" writing-mode="lr-tb" unicode-bidi="normal" text-decoration="none" transform="matrix(1 0 0 1 1313.45 1585)">-</text><text fill="#2F5597" fill-opacity="1" font-family="Calibri,Calibri_MSFontService,sans-serif" font-style="normal" font-variant="normal" font-weight="400" font-stretch="normal" font-size="55" text-anchor="start" direction="ltr" writing-mode="lr-tb" unicode-bidi="normal" text-decoration="none" transform="matrix(1 0 0 1 1342.67 1585)">Why now?</text><text fill="#2F5597" fill-opacity="1" font-family="Calibri,Calibri_MSFontService,sans-serif" font-style="normal" font-variant="normal" font-weight="400" font-stretch="normal" font-size="55" text-anchor="start" direction="ltr" writing-mode="lr-tb" unicode-bidi="normal" text-decoration="none" transform="matrix(1 0 0 1 1867.66 1453)">Workflows</text><text fill="#2F5597" fill-opacity="1" font-family="Calibri,Calibri_MSFontService,sans-serif" font-style="normal" font-variant="normal" font-weight="400" font-stretch="normal" font-size="55" text-anchor="start" direction="ltr" writing-mode="lr-tb" unicode-bidi="normal" text-decoration="none" transform="matrix(1 0 0 1 1867.66 1519)">-</text><text fill="#2F5597" fill-opacity="1" font-family="Calibri,Calibri_MSFontService,sans-serif" font-style="normal" font-variant="normal" font-weight="400" font-stretch="normal" font-size="55" text-anchor="start" direction="ltr" writing-mode="lr-tb" unicode-bidi="normal" text-decoration="none" transform="matrix(1 0 0 1 1896.88 1519)">Current</text><text fill="#2F5597" fill-opacity="1" font-family="Calibri,Calibri_MSFontService,sans-serif" font-style="normal" font-variant="normal" font-weight="400" font-stretch="normal" font-size="55" text-anchor="start" direction="ltr" writing-mode="lr-tb" unicode-bidi="normal" text-decoration="none" transform="matrix(1 0 0 1 1867.66 1585)">-</text><text fill="#2F5597" fill-opacity="1" font-family="Calibri,Calibri_MSFontService,sans-serif" font-style="normal" font-variant="normal" font-weight="400" font-stretch="normal" font-size="55" text-anchor="start" direction="ltr" writing-mode="lr-tb" unicode-bidi="normal" text-decoration="none" transform="matrix(1 0 0 1 1896.88 1585)">Proposed</text><text fill="#2F5597" fill-opacity="1" font-family="Calibri,Calibri_MSFontService,sans-serif" font-style="normal" font-variant="normal" font-weight="400" font-stretch="normal" font-size="55" text-anchor="start" direction="ltr" writing-mode="lr-tb" unicode-bidi="normal" text-decoration="none" transform="matrix(1 0 0 1 2325.74 1438)">Requirements, KPIs</text><text fill="#2F5597" fill-opacity="1" font-family="Calibri,Calibri_MSFontService,sans-serif" font-style="normal" font-variant="normal" font-weight="400" font-stretch="normal" font-size="55" text-anchor="start" direction="ltr" writing-mode="lr-tb" unicode-bidi="normal" text-decoration="none" transform="matrix(1 0 0 1 2325.74 1589)">User stories, Acceptance criteria</text><path d="M2790.52 1417.06 3044.28 1418.37 3044.25 1425.25 2790.48 1423.94ZM3039.75 1408.04 3067.18 1421.93 3039.61 1435.54Z" fill="#4472C4" fill-rule="nonzero" fill-opacity="1"/><text fill="#2F5597" fill-opacity="1" font-family="Calibri,Calibri_MSFontService,sans-serif" font-style="normal" font-variant="normal" font-weight="400" font-stretch="normal" font-size="83" text-anchor="start" direction="ltr" writing-mode="lr-tb" unicode-bidi="normal" text-decoration="none" transform="matrix(1 0 0 1 1625.25 1776)">PRD is a release</text><text fill="#2F5597" fill-opacity="1" font-family="Calibri,Calibri_MSFontService,sans-serif" font-style="normal" font-variant="normal" font-weight="400" font-stretch="normal" font-size="83" text-anchor="start" direction="ltr" writing-mode="lr-tb" unicode-bidi="normal" text-decoration="none" transform="matrix(1 0 0 1 2152.4 1776)">-</text><text fill="#2F5597" fill-opacity="1" font-family="Calibri,Calibri_MSFontService,sans-serif" font-style="normal" font-variant="normal" font-weight="400" font-stretch="normal" font-size="83" text-anchor="start" direction="ltr" writing-mode="lr-tb" unicode-bidi="normal" text-decoration="none" transform="matrix(1 0 0 1 2177.61 1776)">sized scope of work, not a strategy document</text><path d="M3820.5 1345.5 3820.5 1502.47" stroke="#4472C4" stroke-width="9.16667" stroke-linecap="butt" stroke-linejoin="miter" stroke-miterlimit="8" stroke-dasharray="9.16667 9.16667" stroke-opacity="1" fill="none" fill-rule="evenodd"/><text fill="#2F5597" fill-opacity="1" font-family="Calibri,Calibri_MSFontService,sans-serif" font-style="normal" font-variant="normal" font-weight="400" font-stretch="normal" font-size="83" text-anchor="start" direction="ltr" writing-mode="lr-tb" unicode-bidi="normal" text-decoration="none" transform="matrix(1 0 0 1 425.361 845)">Research</text><text fill="#2F5597" fill-opacity="1" font-family="Calibri,Calibri_MSFontService,sans-serif" font-style="normal" font-variant="normal" font-weight="400" font-stretch="normal" font-size="83" text-anchor="start" direction="ltr" writing-mode="lr-tb" unicode-bidi="normal" text-decoration="none" transform="matrix(1 0 0 1 399.258 944)">Customers</text><text fill="#2F5597" fill-opacity="1" font-family="Calibri,Calibri_MSFontService,sans-serif" font-style="normal" font-variant="normal" font-weight="400" font-stretch="normal" font-size="83" text-anchor="start" direction="ltr" writing-mode="lr-tb" unicode-bidi="normal" text-decoration="none" transform="matrix(1 0 0 1 368.115 1043)">Competition</text><text fill="#2F5597" fill-opacity="1" font-family="Calibri,Calibri_MSFontService,sans-serif" font-style="normal" font-variant="normal" font-weight="400" font-stretch="normal" font-size="83" text-anchor="start" direction="ltr" writing-mode="lr-tb" unicode-bidi="normal" text-decoration="none" transform="matrix(1 0 0 1 401.894 1142)">Roadmaps</text><text fill="#2F5597" fill-opacity="1" font-family="Calibri,Calibri_MSFontService,sans-serif" font-style="normal" font-variant="normal" font-weight="400" font-stretch="normal" font-size="83" text-anchor="start" direction="ltr" writing-mode="lr-tb" unicode-bidi="normal" text-decoration="none" transform="matrix(1 0 0 1 475.021 1241)">Vision</text><text fill="#2F5597" fill-opacity="1" font-family="Calibri,Calibri_MSFontService,sans-serif" font-style="normal" font-variant="normal" font-weight="400" font-stretch="normal" font-size="83" text-anchor="start" direction="ltr" writing-mode="lr-tb" unicode-bidi="normal" text-decoration="none" transform="matrix(1 0 0 1 439.454 1340)">Strategy</text></g></g></svg>