<svg width="2772" height="1329" xmlns="http://www.w3.org/2000/svg" xmlns:xlink="http://www.w3.org/1999/xlink" xml:space="preserve" overflow="hidden"><defs><linearGradient x1="2875" y1="1196" x2="2875" y2="1275" gradientUnits="userSpaceOnUse" spreadMethod="reflect" id="fill0"><stop offset="0" stop-color="#F8CBAD" stop-opacity="1"/><stop offset="0.5" stop-color="#F67B28" stop-opacity="1"/><stop offset="1" stop-color="#843C0C" stop-opacity="1"/></linearGradient><linearGradient x1="2875" y1="1196" x2="2875" y2="1275" gradientUnits="userSpaceOnUse" spreadMethod="reflect" id="fill1"><stop offset="0" stop-color="#FBE0CE" stop-opacity="1"/><stop offset="0.5" stop-color="#FAB07E" stop-opacity="1"/><stop offset="1" stop-color="#B58A6D" stop-opacity="1"/></linearGradient><linearGradient x1="2089" y1="1196" x2="2089" y2="1275" gradientUnits="userSpaceOnUse" spreadMethod="reflect" id="fill2"><stop offset="0" stop-color="#FFDD9C" stop-opacity="1"/><stop offset="0.5" stop-color="#FFD78E" stop-opacity="1"/><stop offset="1" stop-color="#7F6000" stop-opacity="1"/></linearGradient><linearGradient x1="2089" y1="1196" x2="2089" y2="1275" gradientUnits="userSpaceOnUse" spreadMethod="reflect" id="fill3"><stop offset="0" stop-color="#FFEBC4" stop-opacity="1"/><stop offset="0.5" stop-color="#FFE7BB" stop-opacity="1"/><stop offset="1" stop-color="#B2A066" stop-opacity="1"/></linearGradient><linearGradient x1="2089" y1="1639" x2="2089" y2="1718" gradientUnits="userSpaceOnUse" spreadMethod="reflect" id="fill4"><stop offset="0" stop-color="#D9D9D9" stop-opacity="1"/><stop offset="0.5" stop-color="#BFBFBF" stop-opacity="1"/><stop offset="0.99" stop-color="#7F7F7F" stop-opacity="1"/><stop offset="1" stop-color="#7F7F7F" stop-opacity="1"/></linearGradient><linearGradient x1="2089" y1="1639" x2="2089" y2="1718" gradientUnits="userSpaceOnUse" spreadMethod="reflect" id="fill5"><stop offset="0" stop-color="#E8E8E8" stop-opacity="1"/><stop offset="0.5" stop-color="#D9D9D9" stop-opacity="1"/><stop offset="0.99" stop-color="#B2B2B2" stop-opacity="1"/><stop offset="1" stop-color="#B2B2B2" stop-opacity="1"/></linearGradient><linearGradient x1="3336.5" y1="1646" x2="3336.5" y2="1711" gradientUnits="userSpaceOnUse" spreadMethod="reflect" id="fill6"><stop offset="0" stop-color="#D2D2D2" stop-opacity="1"/><stop offset="0.5" stop-color="#C8C8C8" stop-opacity="1"/><stop offset="1" stop-color="#3B3838" stop-opacity="1"/></linearGradient><linearGradient x1="1303" y1="1197" x2="1303" y2="1276" gradientUnits="userSpaceOnUse" spreadMethod="reflect" id="fill7"><stop offset="0" stop-color="#DAE3F3" stop-opacity="1"/><stop offset="0.5" stop-color="#A3C1E5" stop-opacity="1"/><stop offset="1" stop-color="#2F5597" stop-opacity="1"/></linearGradient><linearGradient x1="1303" y1="1197" x2="1303" y2="1276" gradientUnits="userSpaceOnUse" spreadMethod="reflect" id="fill8"><stop offset="0" stop-color="#E9EEF8" stop-opacity="1"/><stop offset="0.5" stop-color="#C8DAEF" stop-opacity="1"/><stop offset="1" stop-color="#8299C1" stop-opacity="1"/></linearGradient><linearGradient x1="3336.5" y1="1203" x2="3336.5" y2="1268" gradientUnits="userSpaceOnUse" spreadMethod="reflect" id="fill9"><stop offset="0" stop-color="#D2D2D2" stop-opacity="1"/><stop offset="0.5" stop-color="#C8C8C8" stop-opacity="1"/><stop offset="1" stop-color="#3B3838" stop-opacity="1"/></linearGradient><linearGradient x1="2875" y1="753" x2="2875" y2="832" gradientUnits="userSpaceOnUse" spreadMethod="reflect" id="fill10"><stop offset="0" stop-color="#F8CBAD" stop-opacity="1"/><stop offset="0.5" stop-color="#F67B28" stop-opacity="1"/><stop offset="1" stop-color="#843C0C" stop-opacity="1"/></linearGradient><linearGradient x1="2875" y1="753" x2="2875" y2="832" gradientUnits="userSpaceOnUse" spreadMethod="reflect" id="fill11"><stop offset="0" stop-color="#FBE0CE" stop-opacity="1"/><stop offset="0.5" stop-color="#FAB07E" stop-opacity="1"/><stop offset="1" stop-color="#B58A6D" stop-opacity="1"/></linearGradient><linearGradient x1="2089" y1="753" x2="2089" y2="832" gradientUnits="userSpaceOnUse" spreadMethod="reflect" id="fill12"><stop offset="0" stop-color="#FFDD9C" stop-opacity="1"/><stop offset="0.5" stop-color="#FFD78E" stop-opacity="1"/><stop offset="1" stop-color="#7F6000" stop-opacity="1"/></linearGradient><linearGradient x1="2089" y1="753" x2="2089" y2="832" gradientUnits="userSpaceOnUse" spreadMethod="reflect" id="fill13"><stop offset="0" stop-color="#FFEBC4" stop-opacity="1"/><stop offset="0.5" stop-color="#FFE7BB" stop-opacity="1"/><stop offset="1" stop-color="#B2A066" stop-opacity="1"/></linearGradient><linearGradient x1="1303" y1="754" x2="1303" y2="833" gradientUnits="userSpaceOnUse" spreadMethod="reflect" id="fill14"><stop offset="0" stop-color="#B1CBE9" stop-opacity="1"/><stop offset="0.5" stop-color="#A3C1E5" stop-opacity="1"/><stop offset="1" stop-color="#2F5597" stop-opacity="1"/></linearGradient><linearGradient x1="1303" y1="754" x2="1303" y2="833" gradientUnits="userSpaceOnUse" spreadMethod="reflect" id="fill15"><stop offset="0" stop-color="#D0E0F2" stop-opacity="1"/><stop offset="0.5" stop-color="#C8DAEF" stop-opacity="1"/><stop offset="1" stop-color="#8299C1" stop-opacity="1"/></linearGradient><linearGradient x1="3336.5" y1="760" x2="3336.5" y2="825" gradientUnits="userSpaceOnUse" spreadMethod="reflect" id="fill16"><stop offset="0" stop-color="#D2D2D2" stop-opacity="1"/><stop offset="0.5" stop-color="#C8C8C8" stop-opacity="1"/><stop offset="1" stop-color="#3B3838" stop-opacity="1"/></linearGradient></defs><g transform="translate(-660 -531)"><g><path d="M3254.12 1196C3248.67 1196 3244.25 1213.68 3244.25 1235.5 3244.25 1257.32 3248.67 1275 3254.12 1275L2495.87 1275C2490.42 1275 2486 1257.32 2486 1235.5 2486 1213.68 2490.42 1196 2495.87 1196Z" fill="url(#fill0)" fill-rule="evenodd"/><path d="M3254.12 1196C3259.58 1196 3264 1213.68 3264 1235.5 3264 1257.32 3259.58 1275 3254.12 1275 3248.67 1275 3244.25 1257.32 3244.25 1235.5 3244.25 1213.68 3248.67 1196 3254.12 1196Z" fill="url(#fill1)" fill-rule="evenodd"/><path d="M3254.12 1275C3248.67 1275 3244.25 1257.32 3244.25 1235.5 3244.25 1213.68 3248.67 1196 3254.12 1196 3259.58 1196 3264 1213.68 3264 1235.5 3264 1257.32 3259.58 1275 3254.12 1275L2495.87 1275C2490.42 1275 2486 1257.32 2486 1235.5 2486 1213.68 2490.42 1196 2495.87 1196L3254.12 1196" stroke="#ED7D31" stroke-width="2.29167" stroke-linecap="butt" stroke-linejoin="miter" stroke-miterlimit="8" stroke-opacity="1" fill="none" fill-rule="evenodd"/><text fill="#FFFFFF" fill-opacity="1" font-family="Calibri,Calibri_MSFontService,sans-serif" font-style="normal" font-variant="normal" font-weight="400" font-stretch="normal" font-size="55" text-anchor="start" direction="ltr" writing-mode="lr-tb" unicode-bidi="normal" text-decoration="none" transform="matrix(1 0 0 1 2823.17 1254)">v3.0</text><path d="M2468.13 1196C2462.67 1196 2458.25 1213.68 2458.25 1235.5 2458.25 1257.32 2462.67 1275 2468.13 1275L1709.87 1275C1704.42 1275 1700 1257.32 1700 1235.5 1700 1213.68 1704.42 1196 1709.87 1196Z" fill="url(#fill2)" fill-rule="evenodd"/><path d="M2468.13 1196C2473.58 1196 2478 1213.68 2478 1235.5 2478 1257.32 2473.58 1275 2468.13 1275 2462.67 1275 2458.25 1257.32 2458.25 1235.5 2458.25 1213.68 2462.67 1196 2468.13 1196Z" fill="url(#fill3)" fill-rule="evenodd"/><path d="M2468.13 1275C2462.67 1275 2458.25 1257.32 2458.25 1235.5 2458.25 1213.68 2462.67 1196 2468.13 1196 2473.58 1196 2478 1213.68 2478 1235.5 2478 1257.32 2473.58 1275 2468.13 1275L1709.87 1275C1704.42 1275 1700 1257.32 1700 1235.5 1700 1213.68 1704.42 1196 1709.87 1196L2468.13 1196" stroke="#FFC000" stroke-width="2.29167" stroke-linecap="butt" stroke-linejoin="miter" stroke-miterlimit="8" stroke-opacity="1" fill="none" fill-rule="evenodd"/><text fill="#000000" fill-opacity="1" font-family="Calibri,Calibri_MSFontService,sans-serif" font-style="normal" font-variant="normal" font-weight="400" font-stretch="normal" font-size="55" text-anchor="start" direction="ltr" writing-mode="lr-tb" unicode-bidi="normal" text-decoration="none" transform="matrix(1 0 0 1 2037 1254)">v2.0</text><path d="M3254.13 1639C3248.67 1639 3244.25 1656.69 3244.25 1678.5 3244.25 1700.32 3248.67 1718 3254.13 1718L923.874 1718C918.421 1718 914 1700.31 914 1678.5 914 1656.68 918.421 1639 923.874 1639Z" fill="url(#fill4)" fill-rule="evenodd"/><path d="M3254.13 1639C3259.58 1639 3264 1656.69 3264 1678.5 3264 1700.32 3259.58 1718 3254.13 1718 3248.67 1718 3244.25 1700.32 3244.25 1678.5 3244.25 1656.69 3248.67 1639 3254.13 1639Z" fill="url(#fill5)" fill-rule="evenodd"/><path d="M3254.13 1718C3248.67 1718 3244.25 1700.31 3244.25 1678.5 3244.25 1656.68 3248.67 1639 3254.13 1639 3259.58 1639 3264 1656.68 3264 1678.5 3264 1700.31 3259.58 1718 3254.13 1718L923.874 1718C918.421 1718 914 1700.31 914 1678.5 914 1656.68 918.421 1639 923.874 1639L3254.13 1639" stroke="#5B9BD5" stroke-width="2.29167" stroke-linecap="butt" stroke-linejoin="miter" stroke-miterlimit="8" stroke-opacity="1" fill="none" fill-rule="evenodd"/><path d="M377.985 55.4755C435.285 97.9728 406.526 153.701 313.75 179.948 220.974 206.195 99.3145 193.021 42.0149 150.524-14.4538 108.643 12.5695 53.7657 102.82 27.0443L94.4054 17.957 134.81 21.802 114.784 39.9643 106.373 30.8809C16.7345 56.3113-9.53638 109.215 47.6952 149.046 104.927 188.876 223.989 200.549 313.627 175.119 403.185 149.711 429.503 96.872 372.436 57.0454Z" stroke="#000000" stroke-width="2.29167" stroke-linecap="butt" stroke-linejoin="miter" stroke-miterlimit="8" stroke-opacity="1" fill="#7F7F7F" fill-rule="evenodd" fill-opacity="1" transform="matrix(-1 0 0 1 2621 1664)"/><text fill="#7F7F7F" fill-opacity="1" font-family="Calibri,Calibri_MSFontService,sans-serif" font-style="normal" font-variant="normal" font-weight="400" font-stretch="normal" font-size="55" text-anchor="start" direction="ltr" writing-mode="lr-tb" unicode-bidi="normal" text-decoration="none" transform="matrix(1 0 0 1 2365.5 1799)">task</text><path d="M3246 1662.25 3394.5 1662.25 3394.5 1646 3427 1678.5 3394.5 1711 3394.5 1694.75 3246 1694.75Z" stroke="#A5A5A5" stroke-width="2.29167" stroke-linecap="butt" stroke-linejoin="miter" stroke-miterlimit="8" stroke-opacity="1" fill="url(#fill6)" fill-rule="evenodd"/><path d="M1682.12 1197C1676.67 1197 1672.25 1214.68 1672.25 1236.5 1672.25 1258.32 1676.67 1276 1682.12 1276L923.875 1276C918.421 1276 914 1258.32 914 1236.5 914 1214.68 918.421 1197 923.875 1197Z" fill="url(#fill7)" fill-rule="evenodd"/><path d="M1682.12 1197C1687.58 1197 1692 1214.68 1692 1236.5 1692 1258.32 1687.58 1276 1682.12 1276 1676.67 1276 1672.25 1258.32 1672.25 1236.5 1672.25 1214.68 1676.67 1197 1682.12 1197Z" fill="url(#fill8)" fill-rule="evenodd"/><path d="M1682.12 1276C1676.67 1276 1672.25 1258.32 1672.25 1236.5 1672.25 1214.68 1676.67 1197 1682.12 1197 1687.58 1197 1692 1214.68 1692 1236.5 1692 1258.32 1687.58 1276 1682.12 1276L923.875 1276C918.421 1276 914 1258.32 914 1236.5 914 1214.68 918.421 1197 923.875 1197L1682.12 1197" stroke="#5B9BD5" stroke-width="2.29167" stroke-linecap="butt" stroke-linejoin="miter" stroke-miterlimit="8" stroke-opacity="1" fill="none" fill-rule="evenodd"/><text fill="#000000" fill-opacity="1" font-family="Calibri,Calibri_MSFontService,sans-serif" font-style="normal" font-variant="normal" font-weight="400" font-stretch="normal" font-size="55" text-anchor="start" direction="ltr" writing-mode="lr-tb" unicode-bidi="normal" text-decoration="none" transform="matrix(1 0 0 1 1250.83 1254)">v1.0</text><path d="M3246 1219.25 3394.5 1219.25 3394.5 1203 3427 1235.5 3394.5 1268 3394.5 1251.75 3246 1251.75Z" stroke="#A5A5A5" stroke-width="2.29167" stroke-linecap="butt" stroke-linejoin="miter" stroke-miterlimit="8" stroke-opacity="1" fill="url(#fill9)" fill-rule="evenodd"/><path d="M543.4 184.607C558.492 283.656 454.59 372.409 311.327 382.844 168.064 393.278 39.6916 321.442 24.5994 222.393 22.5798 209.138 22.6917 195.77 24.9332 182.532L2.36604 177.324 42.8603 147.854 59.8456 190.588 37.2796 185.38C22.4682 277.442 120.922 360.185 257.182 370.192 393.442 380.199 515.909 313.681 530.721 221.619 532.65 209.625 532.658 197.524 530.744 185.528Z" stroke="#000000" stroke-width="2.29167" stroke-linecap="butt" stroke-linejoin="miter" stroke-miterlimit="8" stroke-opacity="1" fill="#000000" fill-rule="evenodd" fill-opacity="1" transform="matrix(-1 0 0 1 1781 1088)"/><text fill="#000000" fill-opacity="1" font-family="Calibri,Calibri_MSFontService,sans-serif" font-style="normal" font-variant="normal" font-weight="400" font-stretch="normal" font-size="64" text-anchor="start" direction="ltr" writing-mode="lr-tb" unicode-bidi="normal" text-decoration="none" transform="matrix(1 0 0 1 1380.9 1386)">outcome</text><path d="M543.401 184.607C558.493 283.656 454.59 372.409 311.327 382.844 168.064 393.278 39.6917 321.442 24.5995 222.393 22.5798 209.138 22.6917 195.77 24.9332 182.532L2.36605 177.324 42.8603 147.854 59.8456 190.588 37.2797 185.38C22.4682 277.442 120.922 360.185 257.182 370.192 393.442 380.199 515.91 313.681 530.721 221.619 532.651 209.625 532.659 197.524 530.745 185.528Z" stroke="#000000" stroke-width="2.29167" stroke-linecap="butt" stroke-linejoin="miter" stroke-miterlimit="8" stroke-opacity="1" fill="#000000" fill-rule="evenodd" fill-opacity="1" transform="matrix(-1 0 0 1 3337 1088)"/><text fill="#000000" fill-opacity="1" font-family="Calibri,Calibri_MSFontService,sans-serif" font-style="normal" font-variant="normal" font-weight="400" font-stretch="normal" font-size="64" text-anchor="start" direction="ltr" writing-mode="lr-tb" unicode-bidi="normal" text-decoration="none" transform="matrix(1 0 0 1 2936.66 1386)">outcome</text><path d="M543.4 184.607C558.492 283.656 454.59 372.409 311.327 382.844 168.064 393.278 39.6916 321.442 24.5994 222.393 22.5798 209.138 22.6917 195.77 24.9332 182.532L2.36604 177.324 42.8603 147.854 59.8456 190.588 37.2796 185.38C22.4682 277.442 120.922 360.185 257.182 370.192 393.442 380.199 515.909 313.681 530.721 221.619 532.65 209.625 532.658 197.524 530.744 185.528Z" stroke="#000000" stroke-width="2.29167" stroke-linecap="butt" stroke-linejoin="miter" stroke-miterlimit="8" stroke-opacity="1" fill="#000000" fill-rule="evenodd" fill-opacity="1" transform="matrix(-1 0 0 1 2559 1088)"/><text fill="#000000" fill-opacity="1" font-family="Calibri,Calibri_MSFontService,sans-serif" font-style="normal" font-variant="normal" font-weight="400" font-stretch="normal" font-size="64" text-anchor="start" direction="ltr" writing-mode="lr-tb" unicode-bidi="normal" text-decoration="none" transform="matrix(1 0 0 1 2159.19 1386)">outcome</text><path d="M3254.13 753C3248.67 753 3244.25 770.685 3244.25 792.5 3244.25 814.315 3248.67 832 3254.13 832L2495.87 832C2490.42 832 2486 814.315 2486 792.5 2486 770.685 2490.42 753 2495.87 753Z" fill="url(#fill10)" fill-rule="evenodd"/><path d="M3254.13 753C3259.58 753 3264 770.685 3264 792.5 3264 814.315 3259.58 832 3254.13 832 3248.67 832 3244.25 814.315 3244.25 792.5 3244.25 770.685 3248.67 753 3254.13 753Z" fill="url(#fill11)" fill-rule="evenodd"/><path d="M3254.13 832C3248.67 832 3244.25 814.315 3244.25 792.5 3244.25 770.685 3248.67 753 3254.13 753 3259.58 753 3264 770.685 3264 792.5 3264 814.315 3259.58 832 3254.13 832L2495.87 832C2490.42 832 2486 814.315 2486 792.5 2486 770.685 2490.42 753 2495.87 753L3254.13 753" stroke="#ED7D31" stroke-width="2.29167" stroke-linecap="butt" stroke-linejoin="miter" stroke-miterlimit="8" stroke-opacity="1" fill="none" fill-rule="evenodd"/><text fill="#FFFFFF" fill-opacity="1" font-family="Calibri,Calibri_MSFontService,sans-serif" font-style="normal" font-variant="normal" font-weight="400" font-stretch="normal" font-size="55" text-anchor="start" direction="ltr" writing-mode="lr-tb" unicode-bidi="normal" text-decoration="none" transform="matrix(1 0 0 1 2823.17 810)">v3.0</text><path d="M2468.13 753C2462.67 753 2458.25 770.685 2458.25 792.5 2458.25 814.315 2462.67 832 2468.13 832L1709.87 832C1704.42 832 1700 814.315 1700 792.5 1700 770.685 1704.42 753 1709.87 753Z" fill="url(#fill12)" fill-rule="evenodd"/><path d="M2468.13 753C2473.58 753 2478 770.685 2478 792.5 2478 814.315 2473.58 832 2468.13 832 2462.67 832 2458.25 814.315 2458.25 792.5 2458.25 770.685 2462.67 753 2468.13 753Z" fill="url(#fill13)" fill-rule="evenodd"/><path d="M2468.13 832C2462.67 832 2458.25 814.315 2458.25 792.5 2458.25 770.685 2462.67 753 2468.13 753 2473.58 753 2478 770.685 2478 792.5 2478 814.315 2473.58 832 2468.13 832L1709.87 832C1704.42 832 1700 814.315 1700 792.5 1700 770.685 1704.42 753 1709.87 753L2468.13 753" stroke="#FFC000" stroke-width="2.29167" stroke-linecap="butt" stroke-linejoin="miter" stroke-miterlimit="8" stroke-opacity="1" fill="none" fill-rule="evenodd"/><text fill="#000000" fill-opacity="1" font-family="Calibri,Calibri_MSFontService,sans-serif" font-style="normal" font-variant="normal" font-weight="400" font-stretch="normal" font-size="55" text-anchor="start" direction="ltr" writing-mode="lr-tb" unicode-bidi="normal" text-decoration="none" transform="matrix(1 0 0 1 2037 810)">v2.0</text><path d="M1682.12 754C1676.67 754 1672.25 771.685 1672.25 793.5 1672.25 815.315 1676.67 833 1682.12 833L923.875 833C918.421 833 914 815.315 914 793.5 914 771.685 918.421 754 923.875 754Z" fill="url(#fill14)" fill-rule="evenodd"/><path d="M1682.12 754C1687.58 754 1692 771.685 1692 793.5 1692 815.315 1687.58 833 1682.12 833 1676.67 833 1672.25 815.315 1672.25 793.5 1672.25 771.685 1676.67 754 1682.12 754Z" fill="url(#fill15)" fill-rule="evenodd"/><path d="M1682.12 833C1676.67 833 1672.25 815.315 1672.25 793.5 1672.25 771.685 1676.67 754 1682.12 754 1687.58 754 1692 771.685 1692 793.5 1692 815.315 1687.58 833 1682.12 833L923.875 833C918.421 833 914 815.315 914 793.5 914 771.685 918.421 754 923.875 754L1682.12 754" stroke="#5B9BD5" stroke-width="2.29167" stroke-linecap="butt" stroke-linejoin="miter" stroke-miterlimit="8" stroke-opacity="1" fill="none" fill-rule="evenodd"/><text fill="#000000" fill-opacity="1" font-family="Calibri,Calibri_MSFontService,sans-serif" font-style="normal" font-variant="normal" font-weight="400" font-stretch="normal" font-size="55" text-anchor="start" direction="ltr" writing-mode="lr-tb" unicode-bidi="normal" text-decoration="none" transform="matrix(1 0 0 1 1250.83 811)">v1.0</text><path d="M3246 776.25 3394.5 776.25 3394.5 760 3427 792.5 3394.5 825 3394.5 808.75 3246 808.75Z" stroke="#A5A5A5" stroke-width="2.29167" stroke-linecap="butt" stroke-linejoin="miter" stroke-miterlimit="8" stroke-opacity="1" fill="url(#fill16)" fill-rule="evenodd"/><path d="M18.8768 235.861C30.4552 105.679 158.541 8.49128 304.964 18.7853 425.323 27.247 524.169 106.729 545.691 212.352L563.326 213.277 538.249 267.838 504.801 210.207 522.388 211.129C495.132 95.425 366.307 21.0461 234.648 44.9992 128.713 64.2724 49.9585 142.67 41.3319 237.44Z" stroke="#000000" stroke-width="2.29167" stroke-linecap="butt" stroke-linejoin="miter" stroke-miterlimit="8" stroke-opacity="1" fill="#A9D18E" fill-rule="evenodd" fill-opacity="1" transform="matrix(-1 0 0 1 2211 515)"/><text fill="#548235" fill-opacity="1" font-family="Calibri,Calibri_MSFontService,sans-serif" font-style="normal" font-variant="normal" font-weight="700" font-stretch="normal" font-size="64" text-anchor="start" direction="ltr" writing-mode="lr-tb" unicode-bidi="normal" text-decoration="none" transform="matrix(1 0 0 1 1810.64 679)">Success?</text><path d="M377.985 55.4755C435.285 97.9728 406.526 153.701 313.75 179.948 220.974 206.195 99.3145 193.021 42.0149 150.524-14.4538 108.643 12.5695 53.7657 102.82 27.0443L94.4054 17.957 134.81 21.802 114.784 39.9643 106.373 30.8809C16.7345 56.3113-9.53638 109.215 47.6952 149.046 104.927 188.876 223.989 200.549 313.627 175.119 403.185 149.711 429.503 96.872 372.436 57.0454Z" stroke="#000000" stroke-width="2.29167" stroke-linecap="butt" stroke-linejoin="miter" stroke-miterlimit="8" stroke-opacity="1" fill="#7F7F7F" fill-rule="evenodd" fill-opacity="1" transform="matrix(-1 0 0 1 2299 1664)"/><text fill="#7F7F7F" fill-opacity="1" font-family="Calibri,Calibri_MSFontService,sans-serif" font-style="normal" font-variant="normal" font-weight="400" font-stretch="normal" font-size="55" text-anchor="start" direction="ltr" writing-mode="lr-tb" unicode-bidi="normal" text-decoration="none" transform="matrix(1 0 0 1 2043.71 1799)">task</text><path d="M377.177 55.5629C434.227 98.09 405.403 153.803 312.797 180.002 220.192 206.201 98.8725 192.964 41.8229 150.437-14.3075 108.595 12.5925 53.8268 102.4 27.1013L93.9845 18.0128 134.339 21.833 114.364 40.02 105.951 30.9352C16.613 56.4128-9.44931 109.331 47.7393 149.131 104.928 188.931 223.711 200.542 313.049 175.064 402.158 149.652 428.354 96.9205 371.636 57.1304Z" stroke="#000000" stroke-width="2.29167" stroke-linecap="butt" stroke-linejoin="miter" stroke-miterlimit="8" stroke-opacity="1" fill="#7F7F7F" fill-rule="evenodd" fill-opacity="1" transform="matrix(-1 0 0 1 1977 1664)"/><text fill="#7F7F7F" fill-opacity="1" font-family="Calibri,Calibri_MSFontService,sans-serif" font-style="normal" font-variant="normal" font-weight="400" font-stretch="normal" font-size="55" text-anchor="start" direction="ltr" writing-mode="lr-tb" unicode-bidi="normal" text-decoration="none" transform="matrix(1 0 0 1 1721.91 1799)">task</text><path d="M662.5 793.5C662.5 749.317 698.317 713.5 742.5 713.5 786.683 713.5 822.5 749.317 822.5 793.5 822.5 837.683 786.683 873.5 742.5 873.5 698.317 873.5 662.5 837.683 662.5 793.5ZM667.231 793.5C667.231 835.07 700.93 868.769 742.5 868.769 784.07 868.769 817.769 835.07 817.769 793.5 817.769 751.93 784.07 718.231 742.5 718.231 700.93 718.231 667.231 751.93 667.231 793.5Z" stroke="#64310F" stroke-width="4.58333" stroke-linecap="butt" stroke-linejoin="miter" stroke-miterlimit="8" stroke-opacity="1" fill="#ED7D31" fill-rule="evenodd" fill-opacity="1"/><text fill="#000000" fill-opacity="1" font-family="Calibri,Calibri_MSFontService,sans-serif" font-style="normal" font-variant="normal" font-weight="400" font-stretch="normal" font-size="83" text-anchor="start" direction="ltr" writing-mode="lr-tb" unicode-bidi="normal" text-decoration="none" transform="matrix(1 0 0 1 720.747 820)">3</text><path d="M662.5 1236C662.5 1192.09 698.317 1156.5 742.5 1156.5 786.683 1156.5 822.5 1192.09 822.5 1236 822.5 1279.91 786.683 1315.5 742.5 1315.5 698.317 1315.5 662.5 1279.91 662.5 1236ZM667.202 1236C667.202 1277.31 700.914 1310.8 742.5 1310.8 784.086 1310.8 817.798 1277.31 817.798 1236 817.798 1194.69 784.086 1161.2 742.5 1161.2 700.914 1161.2 667.202 1194.69 667.202 1236Z" stroke="#64310F" stroke-width="4.58333" stroke-linecap="butt" stroke-linejoin="miter" stroke-miterlimit="8" stroke-opacity="1" fill="#ED7D31" fill-rule="evenodd" fill-opacity="1"/><text fill="#000000" fill-opacity="1" font-family="Calibri,Calibri_MSFontService,sans-serif" font-style="normal" font-variant="normal" font-weight="400" font-stretch="normal" font-size="83" text-anchor="start" direction="ltr" writing-mode="lr-tb" unicode-bidi="normal" text-decoration="none" transform="matrix(1 0 0 1 720.747 1263)">2</text><path d="M662.5 1678.5C662.5 1634.32 698.317 1598.5 742.5 1598.5 786.683 1598.5 822.5 1634.32 822.5 1678.5 822.5 1722.68 786.683 1758.5 742.5 1758.5 698.317 1758.5 662.5 1722.68 662.5 1678.5ZM667.231 1678.5C667.231 1720.07 700.93 1753.77 742.5 1753.77 784.07 1753.77 817.769 1720.07 817.769 1678.5 817.769 1636.93 784.07 1603.23 742.5 1603.23 700.93 1603.23 667.231 1636.93 667.231 1678.5Z" stroke="#64310F" stroke-width="4.58333" stroke-linecap="butt" stroke-linejoin="miter" stroke-miterlimit="8" stroke-opacity="1" fill="#ED7D31" fill-rule="evenodd" fill-opacity="1"/><text fill="#000000" fill-opacity="1" font-family="Calibri,Calibri_MSFontService,sans-serif" font-style="normal" font-variant="normal" font-weight="400" font-stretch="normal" font-size="83" text-anchor="start" direction="ltr" writing-mode="lr-tb" unicode-bidi="normal" text-decoration="none" transform="matrix(1 0 0 1 720.747 1706)">1</text><path d="M377.985 55.4755C435.285 97.9728 406.525 153.701 313.75 179.948 220.974 206.195 99.3144 193.021 42.0149 150.524-14.4538 108.643 12.5695 53.7657 102.82 27.0443L94.4053 17.957 134.81 21.802 114.784 39.9643 106.373 30.8809C16.7345 56.3113-9.53638 109.215 47.6952 149.046 104.927 188.876 223.988 200.549 313.627 175.119 403.185 149.711 429.502 96.872 372.436 57.0454Z" stroke="#000000" stroke-width="2.29167" stroke-linecap="butt" stroke-linejoin="miter" stroke-miterlimit="8" stroke-opacity="1" fill="#7F7F7F" fill-rule="evenodd" fill-opacity="1" transform="matrix(-1 0 0 1 2943 1664)"/><text fill="#7F7F7F" fill-opacity="1" font-family="Calibri,Calibri_MSFontService,sans-serif" font-style="normal" font-variant="normal" font-weight="400" font-stretch="normal" font-size="55" text-anchor="start" direction="ltr" writing-mode="lr-tb" unicode-bidi="normal" text-decoration="none" transform="matrix(1 0 0 1 2687.3 1799)">task</text><path d="M377.177 55.5629C434.227 98.09 405.403 153.803 312.797 180.002 220.192 206.201 98.8725 192.964 41.8229 150.437-14.3075 108.595 12.5925 53.8268 102.4 27.1013L93.9845 18.0128 134.339 21.833 114.364 40.02 105.951 30.9352C16.613 56.4128-9.44931 109.331 47.7393 149.131 104.928 188.931 223.711 200.542 313.049 175.064 402.158 149.652 428.354 96.9205 371.636 57.1304Z" stroke="#000000" stroke-width="2.29167" stroke-linecap="butt" stroke-linejoin="miter" stroke-miterlimit="8" stroke-opacity="1" fill="#7F7F7F" fill-rule="evenodd" fill-opacity="1" transform="matrix(-1 0 0 1 1655 1664)"/><text fill="#7F7F7F" fill-opacity="1" font-family="Calibri,Calibri_MSFontService,sans-serif" font-style="normal" font-variant="normal" font-weight="400" font-stretch="normal" font-size="55" text-anchor="start" direction="ltr" writing-mode="lr-tb" unicode-bidi="normal" text-decoration="none" transform="matrix(1 0 0 1 1400.12 1799)">task</text><path d="M377.985 55.4755C435.285 97.9728 406.526 153.701 313.75 179.948 220.974 206.195 99.3145 193.021 42.0149 150.524-14.4538 108.643 12.5695 53.7657 102.82 27.0443L94.4054 17.957 134.81 21.802 114.784 39.9643 106.373 30.8809C16.7345 56.3113-9.53638 109.215 47.6952 149.046 104.927 188.876 223.989 200.549 313.627 175.119 403.185 149.711 429.503 96.872 372.436 57.0454Z" stroke="#000000" stroke-width="2.29167" stroke-linecap="butt" stroke-linejoin="miter" stroke-miterlimit="8" stroke-opacity="1" fill="#7F7F7F" fill-rule="evenodd" fill-opacity="1" transform="matrix(-1 0 0 1 1334 1664)"/><text fill="#7F7F7F" fill-opacity="1" font-family="Calibri,Calibri_MSFontService,sans-serif" font-style="normal" font-variant="normal" font-weight="400" font-stretch="normal" font-size="55" text-anchor="start" direction="ltr" writing-mode="lr-tb" unicode-bidi="normal" text-decoration="none" transform="matrix(1 0 0 1 1078.32 1799)">task</text><path d="M377.177 55.5629C434.227 98.09 405.403 153.803 312.797 180.002 220.192 206.201 98.8725 192.964 41.8229 150.437-14.3075 108.595 12.5925 53.8268 102.4 27.1013L93.9845 18.0128 134.339 21.833 114.364 40.02 105.951 30.9352C16.613 56.4128-9.44931 109.331 47.7393 149.131 104.928 188.931 223.711 200.542 313.049 175.064 402.158 149.652 428.354 96.9205 371.636 57.1304Z" stroke="#000000" stroke-width="2.29167" stroke-linecap="butt" stroke-linejoin="miter" stroke-miterlimit="8" stroke-opacity="1" fill="#7F7F7F" fill-rule="evenodd" fill-opacity="1" transform="matrix(-1 0 0 1 3264 1664)"/><text fill="#7F7F7F" fill-opacity="1" font-family="Calibri,Calibri_MSFontService,sans-serif" font-style="normal" font-variant="normal" font-weight="400" font-stretch="normal" font-size="55" text-anchor="start" direction="ltr" writing-mode="lr-tb" unicode-bidi="normal" text-decoration="none" transform="matrix(1 0 0 1 3009.1 1799)">task</text><path d="M18.8768 235.861C30.4552 105.679 158.541 8.49128 304.964 18.7853 425.323 27.247 524.169 106.729 545.691 212.352L563.326 213.277 538.249 267.838 504.801 210.207 522.388 211.129C495.132 95.425 366.307 21.0461 234.648 44.9992 128.713 64.2724 49.9585 142.67 41.3319 237.44Z" stroke="#000000" stroke-width="2.29167" stroke-linecap="butt" stroke-linejoin="miter" stroke-miterlimit="8" stroke-opacity="1" fill="#A9D18E" fill-rule="evenodd" fill-opacity="1" transform="matrix(-1 0 0 1 2998 515)"/><text fill="#548235" fill-opacity="1" font-family="Calibri,Calibri_MSFontService,sans-serif" font-style="normal" font-variant="normal" font-weight="700" font-stretch="normal" font-size="64" text-anchor="start" direction="ltr" writing-mode="lr-tb" unicode-bidi="normal" text-decoration="none" transform="matrix(1 0 0 1 2597.74 679)">Success?</text></g></g></svg>